<svg width="155" height="76" viewBox="0 0 155 76" fill="none" xmlns="http://www.w3.org/2000/svg">
<path d="M0.353097 15.8636C-0.0680599 16.2209 -0.119847 16.8519 0.237427 17.2731C0.594702 17.6942 1.22575 17.746 1.6469 17.3888L0.353097 15.8636ZM154.041 76L154.589 64.466L144.326 69.7578L154.041 76ZM1.6469 17.3888C15.0835 5.99025 32.9613 0.434187 47.3904 2.38354C54.5899 3.35617 60.8804 6.18762 65.3685 11.0319C69.8483 15.8673 72.6177 22.7997 72.6177 32.1444H74.6177C74.6177 22.3866 71.7151 14.9395 66.8356 9.67265C61.9643 4.41477 55.208 1.4215 47.6582 0.40154C32.5888 -1.6343 14.1577 4.15295 0.353097 15.8636L1.6469 17.3888ZM72.6177 32.1444C72.6177 41.5199 69.8587 47.2243 66.3403 50.1039C62.8418 52.9672 58.4223 53.1852 54.6658 51.2631C50.9052 49.3388 47.7796 45.2406 47.0739 39.4243C46.3682 33.6076 48.0836 26.0104 54.1631 17.1938L52.5166 16.0584C46.2381 25.1635 44.3092 33.2424 45.0885 39.6652C45.8678 46.0884 49.3564 50.793 53.7548 53.0435C58.1572 55.2962 63.4415 55.0609 67.607 51.6516C71.7526 48.2587 74.6177 41.8712 74.6177 32.1444H72.6177ZM54.1631 17.1938C59.7731 9.0581 66.9825 5.70475 75.0135 5.77741C83.1157 5.85072 92.1512 9.41577 101.282 15.3551C119.535 27.2285 137.781 48.3389 149.04 68.4831L150.786 67.5073C139.404 47.1431 120.952 25.7647 102.372 13.6786C93.0862 7.63809 83.6719 3.85567 75.0316 3.7775C66.32 3.69868 58.4941 7.38985 52.5166 16.0584L54.1631 17.1938Z" fill="white" fill-opacity="0.8"/>
</svg>
