<svg width="600" height="600" viewBox="0 0 600 600" fill="none" xmlns="http://www.w3.org/2000/svg">
<rect width="600" height="600" rx="100" fill="black"/>
<path d="M154 475V125H311.5C333.833 125 353.999 129.834 372 139.5C390.334 149.166 404.667 162.5 415 179.5C425.334 196.166 430.5 215.167 430.5 236.5C430.5 258.5 425.334 278.333 415 295.999C404.667 313.333 390.5 327.001 372.499 336.999C354.5 347 334.166 352 311.5 352H234.999V475H154ZM348 475L259 317L346 304.5L445 475H348ZM234.999 287H304C312.667 287 320.167 285.167 326.5 281.5C333.167 277.499 338.166 272 341.499 265C345.167 258 347 250 347 241C347 232 345 224.167 341 217.5C337 210.5 331.167 205.167 323.5 201.5C316.167 197.833 307.166 196 296.499 196H234.999V287Z" fill="#FCFDFF"/>
</svg>
